HIERARCHY
ROOT Hips
{
	OFFSET 0.000000 0.000000 0.000000
	CHANNELS 6 Xposition Yposition Zposition Xrotation Yrotation Zrotation
	JOINT LeftUpLeg_virtual
	{
		OFFSET 0.000000 0.000000 0.000000
		CHANNELS 3 Xrotation Yrotation Zrotation
		JOINT LeftUpLeg
		{
			OFFSET 11.394100 -6.187798 -0.413800
			CHANNELS 3 Xrotation Yrotation Zrotation
			JOINT LeftLeg
			{
				OFFSET 0.430247 -32.302673 3.732800
				CHANNELS 3 Xrotation Yrotation Zrotation
				JOINT LeftFoot
				{
					OFFSET -0.430247 -48.264931 -6.423300
					CHANNELS 3 Xrotation Yrotation Zrotation
					JOINT LeftToeBase
					{
						OFFSET 4.230900 -16.068199 23.438400
						CHANNELS 3 Xrotation Yrotation Zrotation
						JOINT LeftToe_End
						{
							OFFSET 4.510700 0.695400 19.974600
							CHANNELS 3 Xrotation Yrotation Zrotation
							End Site
							{
								OFFSET 0 0 0
							}
						}
					}
				}
			}
		}
	}
	JOINT RightUpLeg_virtual
	{
		OFFSET 0.000000 0.000000 0.000000
		CHANNELS 3 Xrotation Yrotation Zrotation
		JOINT RightUpLeg
		{
			OFFSET -11.333700 -6.187798 -0.413800
			CHANNELS 3 Xrotation Yrotation Zrotation
			JOINT RightLeg
			{
				OFFSET -0.430392 -32.302628 3.733000
				CHANNELS 3 Xrotation Yrotation Zrotation
				JOINT RightFoot
				{
					OFFSET 0.430392 -48.264973 -6.423500
					CHANNELS 3 Xrotation Yrotation Zrotation
					JOINT RightToeBase
					{
						OFFSET -4.230900 -16.068199 23.438400
						CHANNELS 3 Xrotation Yrotation Zrotation
						JOINT RightToe_End
						{
							OFFSET -4.510700 0.695400 19.974600
							CHANNELS 3 Xrotation Yrotation Zrotation
							End Site
							{
								OFFSET 0 0 0
							}
						}
					}
				}
			}
		}
	}
	JOINT Spine_virtual
	{
		OFFSET 0.000000 0.000000 0.000000
		CHANNELS 3 Xrotation Yrotation Zrotation
		JOINT Spine
		{
			OFFSET -0.002400 12.777504 0.315300
			CHANNELS 3 Xrotation Yrotation Zrotation
			JOINT Spine1
			{
				OFFSET -0.002067 5.816869 0.032633
				CHANNELS 3 Xrotation Yrotation Zrotation
				JOINT Spine1_split
				{
					OFFSET -0.002067 5.816869 0.032633
					CHANNELS 3 Xrotation Yrotation Zrotation
					JOINT Spine2
					{
						OFFSET -0.002067 5.816869 0.032633
						CHANNELS 3 Xrotation Yrotation Zrotation
						JOINT Neck_virtual
						{
							OFFSET 0.000000 0.000000 0.000000
							CHANNELS 3 Xrotation Yrotation Zrotation
							JOINT Neck
							{
								OFFSET -0.003700 21.199493 -0.826900
								CHANNELS 3 Xrotation Yrotation Zrotation
								JOINT Head
								{
									OFFSET 0.000000 20.442200 4.834800
									CHANNELS 3 Xrotation Yrotation Zrotation
									JOINT HeadTop_End
									{
										OFFSET 0.000000 34.668396 4.968400
										CHANNELS 3 Xrotation Yrotation Zrotation
										End Site
										{
											OFFSET 0 0 0
										}
									}
								}
							}
						}
						JOINT LeftShoulder_virtual
						{
							OFFSET 0.000000 0.000000 0.000000
							CHANNELS 3 Xrotation Yrotation Zrotation
							JOINT LeftShoulder
							{
								OFFSET 3.288150 8.794197 -1.372250
								CHANNELS 3 Xrotation Yrotation Zrotation
								JOINT LeftShoulder_split
								{
									OFFSET 3.288150 8.794197 -1.372250
									CHANNELS 3 Xrotation Yrotation Zrotation
									JOINT LeftArm
									{
										OFFSET 11.953299 -2.279007 -0.146200
										CHANNELS 3 Xrotation Yrotation Zrotation
										JOINT LeftForeArm
										{
											OFFSET 18.448900 0.000000 0.000000
											CHANNELS 3 Xrotation Yrotation Zrotation
											JOINT LeftHand
											{
												OFFSET 29.527798 0.000000 0.000000
												CHANNELS 3 Xrotation Yrotation Zrotation
												End Site
												{
													OFFSET 0 0 0
												}
											}
										}
									}
								}
							}
						}
						JOINT RightShoulder_virtual
						{
							OFFSET 0.000000 0.000000 0.000000
							CHANNELS 3 Xrotation Yrotation Zrotation
							JOINT RightShoulder
							{
								OFFSET -3.249400 8.794197 -1.372250
								CHANNELS 3 Xrotation Yrotation Zrotation
								JOINT RightShoulder_split
								{
									OFFSET -3.249400 8.794197 -1.372250
									CHANNELS 3 Xrotation Yrotation Zrotation
									JOINT RightArm
									{
										OFFSET -11.953299 -2.279007 -0.146200
										CHANNELS 3 Xrotation Yrotation Zrotation
										JOINT RightForeArm
										{
											OFFSET -18.448900 0.000000 0.000000
											CHANNELS 3 Xrotation Yrotation Zrotation
											JOINT RightHand
											{
												OFFSET -29.527802 0.000000 0.000000
												CHANNELS 3 Xrotation Yrotation Zrotation
												End Site
												{
													OFFSET 0 0 0
												}
											}
										}
									}
								}
							}
						}
					}
				}
			}
		}
	}
}
MOTION
Frames: 7
Frame Time: 0.03333333
-0.093562 107.687241 -3.414986 0.000000 0.000000 0.000000 -90.807522 -2.089188 1.728433 -4.248290 19.584210 15.512362 3.568228 2.162348 1.564906 23.169952 29.771702 -25.663715 -1.872549 0.000001 0.000007 0.000000 0.000000 0.000000 -90.807522 -2.089188 1.728433 -5.867333 -19.342541 -17.185270 2.525878 -6.348490 -4.757338 33.950367 -29.881589 30.490183 -4.604398 0.000022 0.000003 0.000000 0.000000 0.000000 -90.807522 -2.089188 1.728433 0.698635 -0.122047 -0.879575 0.841694 0.154199 -0.463161 0.000000 0.000000 0.000000 0.000000 0.000000 0.000000 0.831244 0.158014 -0.488484 -3.902739 4.009047 -8.413908 2.479692 8.403989 -12.879456 0.000000 0.000000 0.000000 0.831244 0.158014 -0.488484 0.834131 -6.730775 -3.480306 0.000000 0.000000 0.000000 44.076584 -39.845869 -34.620914 0.000279 -83.340500 0.000255 0.000000 0.000000 0.000000 0.831244 0.158014 -0.488484 0.483594 4.500681 3.202689 0.000000 0.000000 0.000000 -4.326306 2.268508 83.611522 -179.999978 50.428035 179.999991 0.000000 0.000000 0.000000 
-0.092996 107.687622 -3.413246 0.000000 0.000000 0.000000 -90.809298 -2.088500 1.730505 -4.248273 19.584248 15.510933 3.575743 2.136608 1.565040 23.168862 29.770469 -25.661717 -1.862379 0.000011 0.000010 0.000000 0.000000 0.000000 -90.809298 -2.088500 1.730505 -5.869474 -19.347380 -17.184773 2.528615 -6.329226 -4.756949 33.949032 -29.882153 30.489172 -4.623017 0.000021 -0.000000 0.000000 0.000000 0.000000 -90.809298 -2.088500 1.730505 0.698609 -0.122068 -0.879284 0.841681 0.154199 -0.463160 0.000000 0.000000 0.000000 0.000000 0.000000 0.000000 0.831241 0.158014 -0.488483 -3.937782 4.024676 -8.413908 2.565396 8.514524 -12.913616 0.000000 0.000000 0.000000 0.831241 0.158014 -0.488483 0.834869 -6.690143 -3.495207 0.000000 0.000000 0.000000 44.105851 -39.875044 -34.542924 -0.000108 -83.340500 -0.000133 0.000000 0.000000 0.000000 0.831241 0.158014 -0.488483 0.485149 4.473280 3.202568 0.000000 0.000000 0.000000 -4.337907 2.290721 83.617642 179.999991 50.440052 -179.999991 0.000000 0.000000 0.000000 
-0.091110 107.688972 -3.411293 0.000000 0.000000 0.000000 -90.811962 -2.087440 1.731985 -4.257252 19.598371 15.509107 3.587171 2.108200 1.565224 23.158830 29.766996 -25.659166 -1.833871 0.000024 -0.000028 0.000000 0.000000 0.000000 -90.811962 -2.087440 1.731985 -5.872651 -19.368620 -17.184968 2.533305 -6.311792 -4.755722 33.944131 -29.879755 30.484818 -4.673565 0.000011 -0.000019 0.000000 0.000000 0.000000 -90.811962 -2.087440 1.731985 0.698612 -0.122117 -0.878743 0.841709 0.154200 -0.463161 0.000000 0.000000 0.000000 0.000000 0.000000 0.000000 0.835894 0.158014 -0.488483 -4.036206 4.064477 -8.413908 2.850484 8.636294 -13.049390 0.000000 0.000000 0.000000 0.835894 0.158014 -0.488483 0.835483 -6.617841 -3.528195 0.000000 0.000000 0.000000 44.151425 -39.911182 -34.423030 0.000079 -83.340500 0.000082 0.000000 0.000000 0.000000 0.835894 0.158014 -0.488483 0.487200 4.436631 3.202407 0.000000 0.000000 0.000000 -4.352123 2.322253 83.628829 -179.999978 50.456954 179.999991 0.000000 0.000000 0.000000 
-0.087973 107.691254 -3.408752 0.000000 0.000000 0.000000 -90.815172 -2.086117 1.732736 -4.272231 19.622124 15.506759 3.604975 2.077951 1.565491 23.139402 29.762320 -25.655878 -1.790942 0.000006 0.000003 0.000000 0.000000 0.000000 -90.815172 -2.086117 1.732736 -5.878285 -19.399216 -17.194153 2.541790 -6.278899 -4.754328 33.930966 -29.875517 30.475269 -4.750419 -0.000005 -0.000002 0.000000 0.000000 0.000000 -90.815172 -2.086117 1.732736 0.698600 -0.122205 -0.877767 0.851509 0.154199 -0.463160 0.000000 0.000000 0.000000 0.000000 0.000000 0.000000 0.847215 0.158014 -0.488483 -4.186779 4.120709 -8.398720 3.319339 8.757723 -13.359937 0.000000 0.000000 0.000000 0.847215 0.158014 -0.488483 0.836100 -6.520415 -3.575785 0.000000 0.000000 0.000000 44.209240 -39.951911 -34.271297 -0.000210 -83.340500 -0.000233 0.000000 0.000000 0.000000 0.847215 0.158014 -0.488483 0.489747 4.391506 3.202211 0.000000 0.000000 0.000000 -4.368892 2.362223 83.641561 179.999991 50.478233 180.000005 0.000000 0.000000 0.000000 
-0.083898 107.694420 -3.404938 0.000000 0.000000 0.000000 -90.816763 -2.080123 1.732961 -4.294735 19.652133 15.508001 3.629994 2.025414 1.565890 23.117221 29.756170 -25.660322 -1.737218 0.000013 0.000002 0.000000 0.000000 0.000000 -90.816763 -2.080123 1.732961 -5.896315 -19.437091 -17.204260 2.554141 -6.229323 -4.752822 33.916343 -29.870432 30.463030 -4.848552 -0.000004 -0.000004 0.000000 0.000000 0.000000 -90.816763 -2.080123 1.732961 0.698629 -0.122308 -0.866804 0.863148 0.154199 -0.463161 0.000000 0.000000 0.000000 0.000000 0.000000 0.000000 0.860532 0.158014 -0.488483 -4.378080 4.186595 -8.360594 4.210048 8.797241 -14.002555 0.000000 0.000000 0.000000 0.860532 0.158014 -0.488483 0.836780 -6.404468 -3.634535 0.000000 0.000000 0.000000 44.275240 -39.994890 -34.097687 0.000292 -83.340500 0.000275 0.000000 0.000000 0.000000 0.860532 0.158014 -0.488483 0.492926 4.338947 3.198778 0.000000 0.000000 0.000000 -4.387956 2.409574 83.656765 -179.999978 50.503430 179.999991 0.000000 0.000000 0.000000 
-0.079302 107.698311 -3.398674 0.000000 0.000000 0.000000 -90.817808 -2.073377 1.732834 -4.328707 19.685406 15.515821 3.668946 1.955374 1.566402 23.089888 29.744603 -25.667170 -1.676594 0.000010 -0.000007 0.000000 0.000000 0.000000 -90.817808 -2.073377 1.732834 -5.921900 -19.478998 -17.218092 2.579766 -6.182038 -4.751442 33.894298 -29.861228 30.444158 -4.963542 0.000003 -0.000004 0.000000 0.000000 0.000000 -90.817808 -2.073377 1.732834 0.698629 -0.122428 -0.854278 0.875989 0.154199 -0.463161 0.000000 0.000000 0.000000 0.000000 0.000000 0.000000 0.874912 0.158014 -0.485780 -4.597586 4.258355 -8.307586 5.585739 8.710374 -14.816393 0.000000 0.000000 0.000000 0.874912 0.158014 -0.485780 0.837678 -6.276426 -3.700996 0.000000 0.000000 0.000000 44.345468 -40.037865 -33.912091 0.000649 -83.340500 0.000623 0.000000 0.000000 0.000000 0.874912 0.158014 -0.485780 0.496802 4.279798 3.190821 0.000000 0.000000 0.000000 -4.409504 2.463273 83.674318 179.999978 50.532021 -179.999964 0.000000 0.000000 0.000000 
-0.074395 107.702843 -3.390411 0.000000 0.000000 0.000000 -90.817959 -2.065811 1.732354 -4.372688 19.720556 15.528404 3.721962 1.889494 1.567004 23.053422 29.733473 -25.671918 -1.612886 -0.000012 -0.000005 0.000000 0.000000 0.000000 -90.817959 -2.065811 1.732354 -5.956097 -19.522791 -17.233703 2.615767 -6.125334 -4.750242 33.869426 -29.850290 30.421632 -5.089590 -0.000020 -0.000000 0.000000 0.000000 0.000000 -90.817959 -2.065811 1.732354 0.698652 -0.123847 -0.840758 0.889424 0.154199 -0.457417 0.000000 0.000000 0.000000 0.000000 0.000000 0.000000 0.889398 0.158013 -0.482136 -4.832551 4.332780 -8.250536 7.033253 8.584393 -15.577092 0.000000 0.000000 0.000000 0.889398 0.158013 -0.482136 0.838740 -6.143430 -3.771593 0.000000 0.000000 0.000000 44.415819 -40.078321 -33.725066 0.000174 -83.340561 0.000152 0.000000 0.000000 0.000000 0.889398 0.158013 -0.482136 0.501096 4.215574 3.180957 0.000000 0.000000 0.000000 -4.433602 2.521899 83.694003 179.999991 50.563330 180.000005 0.000000 0.000000 0.000000 
